# AST/ASF file generated using VICON BodyLanguage
# -----------------------------------------------
:version 1.10
:name VICON
:units
  mass 1.0
  length 0.45
  angle deg
:documentation
   .ast/.asf automatically generated from VICON data using
   VICON BodyBuilder and BodyLanguage model FoxedUp or BRILLIANT.MOD
:root
   order TX TY TZ RX RY RZ
   axis XYZ
   position 0 0 0  
   orientation 0 0 0 
:bonedata
  begin
     id 1 
     name lhipjoint
     direction 0.521689 -0.742065 0.420928 
     length 2.47002 
     axis 0 0 0  XYZ
  end
  begin
     id 2 
     name lfemur
     direction 0.34202 -0.939693 0  
     length 7.24654  
     axis 0 0 20  XYZ
    dof rx ry rz
    limits (-160.0 20.0)
           (-70.0 70.0)
           (-60.0 70.0)
  end
  begin
     id 3 
     name ltibia
     direction 0.34202 -0.939693 0   
     length 8.04849   
     axis 0 0 20   XYZ
    dof rx
    limits (-10.0 170.0)
  end
  begin
     id 4 
     name lfoot
     direction 0.0745411 -0.2048 0.975961   
     length 1.72367   
     axis -90 7.62852e-016 20   XYZ
    dof rx rz
    limits (-45.0 90.0)
           (-70.0 20.0)
  end
  begin
     id 5 
     name ltoes
     direction 1.53556e-011 -4.21901e-011 1   
     length 0.87311   
     axis -90 7.62852e-016 20   XYZ
    dof rx
    limits (-90.0 20.0)
  end
  begin
     id 6 
     name rhipjoint
     direction -0.52849 -0.738415 0.418857   
     length 2.48223  
     axis 0 0 0  XYZ 
  end
  begin
     id 7 
     name rfemur
     direction -0.34202 -0.939693 0   
     length 7.15571   
     axis 0 0 -20   XYZ
    dof rx ry rz
    limits (-160.0 20.0)
           (-70.0 70.0)
           (-70.0 60.0)
  end
  begin
     id 8 
     name rtibia
     direction -0.34202 -0.939693 0   
     length 7.81659   
     axis 0 0 -20   XYZ
    dof rx
    limits (-10.0 170.0)
 end
 begin
     id 9 
     name rfoot
     direction -0.0917348 -0.252039 0.963359   
     length 1.84382  
     axis -90 -7.62852e-016 -20   XYZ
    dof rx rz
    limits (-45.0 90.0)
           (-20.0 70.0)
  end
  begin
     id 10 
     name rtoes
     direction -1.53551e-011 -4.21879e-011 1   
     length 0.927771   
     axis -90 -7.62852e-016 -20   XYZ
    dof rx
    limits (-90.0 20.0)
  end
  begin
     id 11 
     name lowerback
     direction 0.00583058 0.999822 0.0179296   
     length 2.1429   
     axis 0 0 0   XYZ
    dof rx ry rz
    limits (-20.0 45.0)
           (-30.0 30.0)
           (-30.0 30.0)
  end
  begin
     id 12 
     name upperback
     direction -0.0137999 0.999752 -0.0175071   
     length 2.14252   
     axis 0 0 0   XYZ
    dof rx ry rz
    limits (-20.0 45.0)
           (-30.0 30.0)
           (-30.0 30.0)
  end
  begin
     id 13 
     name thorax
     direction -0.0158036 0.99955 -0.0254909   
     length 2.1383   
     axis 0 0 0   XYZ
    dof rx ry rz
    limits (-20.0 45.0)
           (-30.0 30.0)
           (-30.0 30.0)
  end
  begin
     id 14 
     name lowerneck
     direction -0.0101179 0.999403 -0.0330262   
     length 1.65808   
     axis 0 0 0   XYZ
    dof rx ry rz
    limits (-20.0 45.0)
           (-30.0 30.0)
           (-30.0 30.0)
  end
  begin
     id 15 
     name upperneck
     direction 0.0497734 0.995978 -0.074501   
     length 1.5897   
     axis 0 0 0   XYZ
    dof rx ry rz
    limits (-20.0 45.0)
           (-30.0 30.0)
           (-30.0 30.0)
  end
  begin
     id 16
     name head
     direction 0.0189524 0.999519 -0.0245438  
     length 1.74024  
     axis 0 0 0   XYZ
    dof rx ry rz
    limits (-20.0 45.0)
           (-30.0 30.0)
           (-30.0 30.0)
  end
  begin
     id 17 
     name lclavicle
     direction 0.945604 0.324422 0.0241537  
     length 3.59089  
     axis 0 0 0   XYZ
    dof ry rz
    limits (-20.0 10.0)
           (0.0 20.0)
  end
  begin
     id 18 
     name lhumerus
     direction 1 -4.48964e-011 -2.63524e-027   
     length 5.2391   
     axis 180 -30 -90   XYZ
    dof rx ry rz
    limits (-60.0 90.0)
           (-90.0 90.0)
           (-90.0 90.0)
  end
  begin
     id 19
     name lradius
     direction 1 -4.48969e-011 3.86978e-028   
     length 3.31467   
     axis 180 -30 -90   XYZ
    dof rx
    limits (-10.0 170.0)
  end
  begin
     id 20
     name lwrist
     direction 1 -4.48963e-011 7.20928e-028   
     length 1.65734   
     axis -5.52449e-016 90 90   XYZ
    dof ry
    limits (-180.0 0.0)
 end
  begin
     id 21 
     name lhand
     direction 1 -4.48964e-011 1.44186e-027   
     length 0.9659   
     axis -9.20027e-016 90 90   XYZ
    dof rx rz
    limits (-90.0 90.0)
           (-45.0 45.0)
  end
  begin
     id 22 
     name lfingers
     direction 1 -4.48965e-011 2.88371e-027   
     length 0.778733   
     axis -1.84005e-015 90 90   XYZ
    dof rx
    limits (0.0 90.0)
  end
  begin
     id 23
     name lthumb
     direction 0.707107 -6.34931e-011 0.707107   
     length 1.11811   
     axis -90 45 2.85299e-015   XYZ
    dof rx rz
    limits (-45.0 45.0)
           (-45.0 45.0)
  end
  begin
     id 24 
     name rclavicle
     direction -0.923762 0.370785 0.0958234   
     length 3.54196  
     axis 0 0 0   XYZ 
    dof ry rz
    limits (-10.0 20.0)
           (-20.0 0.0)
  end
  begin
     id 25 
     name rhumerus
     direction -1 -4.48966e-011 1.18702e-017  
     length 5.30252   
     axis 180 30 90   XYZ
    dof rx ry rz
    limits (-90.0 60.0)
           (-90.0 90.0)
           (-90.0 90.0)
  end
  begin
     id 26 
     name rradius
     direction -1 -4.48966e-011 4.46736e-027   
     length 3.67875   
     axis 180 30 90   XYZ
    dof rx
    limits (-10.0 170.0)
  end
  begin
     id 27 
     name rwrist
     direction -1 -4.48966e-011 7.20928e-028   
     length 1.83937   
     axis -5.52449e-016 -90 -90   XYZ
    dof ry
    limits (-180.0 0.0)
  end
  begin
     id 28
     name rhand
     direction -1 -4.48973e-011 1.44186e-027   
     length 0.594811   
     axis -9.20027e-016 -90 -90   XYZ
    dof rx rz
    limits (-90.0 90.0)
           (-45.0 45.0)
  end
  begin
     id 29
     name rfingers
     direction -1 -4.48963e-011 2.88371e-027   
     length 0.479552   
     axis -1.84005e-015 -90 -90   XYZ
    dof rx
    limits (0.0 90.0)
  end
  begin
     id 30
     name rthumb
     direction -0.707107 -6.34932e-011 0.707107   
     length 0.688544   
     axis -90 -45 -2.85299e-015   XYZ
    dof rx rz
    limits (-45.0 45.0)
           (-45.0 45.0)
  end
:hierarchy
  begin
    root lhipjoint rhipjoint lowerback
    lhipjoint lfemur
    lfemur ltibia
    ltibia lfoot
    lfoot ltoes
    rhipjoint rfemur
    rfemur rtibia
    rtibia rfoot
    rfoot rtoes
    lowerback upperback
    upperback thorax
    thorax lowerneck lclavicle rclavicle
    lowerneck upperneck
    upperneck head
    lclavicle lhumerus
    lhumerus lradius
    lradius lwrist
    lwrist lhand lthumb
    lhand lfingers
    rclavicle rhumerus
    rhumerus rradius
    rradius rwrist
    rwrist rhand rthumb
    rhand rfingers
  end

#!OML:ASF E:\acrobat2\Project_11_07_03\Capture day 1\Session 1\Acrobat.ASF
:FULLY-SPECIFIED
:DEGREES
615
root 5.61492 27.8807 0.931121 4.70498 -1.36972 -0.250838
lowerback -5.59824 1.33673 2.52776
upperback -1.16144 1.64186 -0.434078
thorax 2.02526 0.833879 -1.74475
lowerneck 2.96402 -1.23824 -1.58051
upperneck 2.51951 -1.72046 2.12691
head 0.313208 -0.871037 0.91862
rclavicle 1.29808e-014 1.01877e-015
rhumerus -40.8744 -9.08971 -76.1289
rradius 27.6602
rwrist 4.48949
rhand 0.977175 -24.5334
rfingers 7.12502
rthumb 26.526 -52.6963
lclavicle 1.29808e-014 1.01877e-015
lhumerus -32.1208 -8.33128 87.2387
lradius 23.5697
lwrist 9.25159
lhand -11.8905 -12.2023
lfingers 7.12502
lthumb 14.1625 17.2949
rfemur -2.62832 -1.82939 15.4393
rtibia 16.5572
rfoot -23.6039 -13.2903
rtoes -16.8889
lfemur 0.162707 -0.467896 -23.7662
ltibia 13.7702
lfoot 340.852 -13.0247
ltoes 30.4079
616
root 5.60876 27.8867 0.918296 4.74839 -1.48166 -0.397478
lowerback -5.53801 1.33513 2.58047
upperback -1.1141 1.63688 -0.391316
thorax 2.04034 0.832278 -1.73137
lowerneck 2.95103 -1.20921 -1.57401
upperneck 2.41334 -1.67975 2.11015
head 0.281923 -0.8508 0.912366
rclavicle 6.9131e-015 -4.48508e-015
rhumerus -40.7807 -8.9702 -76.4448
rradius 27.9849
rwrist 4.30052
rhand 1.11779 -24.6916
rfingers 7.12502
rthumb 26.6606 -52.8341
lclavicle 6.9131e-015 -4.48508e-015
lhumerus -31.9692 -8.30606 87.099
lradius 23.271
lwrist 9.21901
lhand -11.894 -12.2424
lfingers 7.12502
lthumb 14.1592 17.2551
rfemur -2.93749 -1.75616 15.8028
rtibia 16.5153
rfoot -23.3683 -12.6927
rtoes -16.4007
lfemur 0.275321 -0.519048 -23.4
ltibia 13.6751
lfoot 340.598 -12.9278
ltoes 29.8163
617
root 5.6026 27.8929 0.905477 4.79368 -1.58054 -0.572128
lowerback -5.4817 1.33202 2.68002
upperback -1.0636 1.62694 -0.343169
thorax 2.06173 0.828602 -1.73897
lowerneck 2.94836 -1.21336 -1.56824
upperneck 2.34384 -1.68384 2.08326
head 0.260939 -0.852938 0.903274
rclavicle -2.28886e-014 -2.54693e-015
rhumerus -40.693 -8.85808 -76.7627
rradius 28.3222
rwrist 4.12087
rhand 1.1815 -24.7978
rfingers 7.12502
rthumb 26.7215 -52.931
lclavicle -2.28886e-014 -2.54693e-015
lhumerus -31.8143 -8.27632 86.9519
lradius 22.9633
lwrist 9.12901
lhand -11.7996 -12.3425
lfingers 7.12502
lthumb 14.2502 17.1486
rfemur -3.20545 -1.54796 16.2278
rtibia 16.3741
rfoot -22.9511 -12.1067
rtoes -16.0879
lfemur 0.381486 -0.59817 -22.9859
ltibia 13.5801
lfoot 340.33 -12.7929
ltoes 29.1217
618
root 5.59665 27.899 0.892995 4.83754 -1.67297 -0.753825
lowerback -5.42025 1.31868 2.79911
upperback -1.01486 1.60236 -0.288595
thorax 2.07801 0.817686 -1.75211
lowerneck 2.95143 -1.2194 -1.56819
upperneck 2.31081 -1.69088 2.03062
head 0.250019 -0.856557 0.887078
rclavicle 1.15377e-014 4.05024e-015
rhumerus -40.6075 -8.72362 -77.0758
rradius 28.6311
rwrist 3.9726
rhand 1.17338 -24.741
rfingers 7.12502
rthumb 26.7138 -52.8754
lclavicle 1.15377e-014 4.05024e-015
lhumerus -31.6465 -8.27975 86.8174
lradius 22.6159
lwrist 9.02756
lhand -11.6525 -12.4395
lfingers 7.12502
lthumb 14.3919 17.0416
rfemur -3.4494 -1.20544 16.6789
rtibia 16.2099
rfoot -22.4101 -11.5796
rtoes -15.7841
lfemur 0.490062 -0.692352 -22.5493
ltibia 13.4739
lfoot 340.06 -12.6266
ltoes 28.3268
619
root 5.59048 27.9047 0.880187 4.88031 -1.75652 -0.92147
lowerback -5.34508 1.28981 2.90714
upperback -0.967976 1.5582 -0.230218
thorax 2.08321 0.796803 -1.75688
lowerneck 2.94659 -1.20148 -1.5729
upperneck 2.28755 -1.66568 1.9338
head 0.242433 -0.844037 0.857704
rclavicle 1.24418e-014 -1.9133e-015
rhumerus -40.5163 -8.54519 -77.3912
rradius 28.8854
rwrist 3.82856
rhand 1.08978 -24.4978
rfingers 7.12502
rthumb 26.6338 -52.6444
lclavicle 1.24418e-014 -1.9133e-015
lhumerus -31.4288 -8.37533 86.7174
lradius 22.1719
lwrist 8.98279
lhand -11.4803 -12.5087
lfingers 7.12502
lthumb 14.5578 16.9605
rfemur -3.69801 -0.765489 17.1278
rtibia 16.1218
rfoot -21.8362 -11.1726
rtoes -15.4759
lfemur 0.594441 -0.7875 -22.1085
ltibia 13.3631
lfoot 339.812 -12.4554
ltoes 27.4913
620
root 5.58338 27.9097 0.86584 4.93002 -1.8188 -1.05268
lowerback -5.25516 1.24136 2.97244
upperback -0.923379 1.4911 -0.174431
thorax 2.07551 0.764024 -1.7423
lowerneck 2.92409 -1.14694 -1.58142
upperneck 2.23381 -1.59074 1.79241
head 0.227256 -0.806623 0.814892
rclavicle -4.35181e-015 8.74653e-015
rhumerus -40.4204 -8.32272 -77.7154
rradius 29.0964
rwrist 3.67528
rhand 0.990653 -24.1012
rfingers 7.12502
rthumb 26.5389 -52.2622
lclavicle -4.35181e-015 8.74653e-015
lhumerus -31.1441 -8.57179 86.6518
lradius 21.6194
lwrist 9.00867
lhand -11.3054 -12.5551
lfingers 7.12502
lthumb 14.7263 16.9018
rfemur -3.97905 -0.287783 17.5475
rtibia 16.1706
rfoot -21.3027 -10.9437
rtoes -15.3034
lfemur 0.666943 -0.877426 -21.6823
ltibia 13.2699
lfoot 339.641 -12.322
ltoes 26.8023
621
root 5.57527 27.9137 0.849877 4.99103 -1.85546 -1.12257
lowerback -5.15739 1.17695 2.96945
upperback -0.882925 1.40724 -0.131259
thorax 2.05691 0.72228 -1.70368
lowerneck 2.88984 -1.05916 -1.60053
upperneck 2.13986 -1.47121 1.63611
head 0.201106 -0.746909 0.769111
rclavicle -1.35259e-014 -4.57205e-015
rhumerus -40.3324 -8.06541 -78.0502
rradius 29.2875
rwrist 3.50868
rhand 0.930972 -23.6506
rfingers 7.12502
rthumb 26.4818 -51.8202
lclavicle -1.35259e-014 -4.57205e-015
lhumerus -30.8166 -8.83538 86.6077
lradius 21.0114
lwrist 9.07705
lhand -11.1378 -12.5642
lfingers 7.12502
lthumb 14.8878 16.8808
rfemur -4.29409 0.163315 17.9015
rtibia 16.3511
rfoot -20.8783 -10.8917
rtoes -15.4689
lfemur 0.695151 -0.957288 -21.3007
ltibia 13.1984
lfoot 339.581 -12.2423
ltoes 26.3505
622
root 5.56608 27.9168 0.83234 5.06239 -1.86418 -1.12161
lowerback -5.05103 1.10305 2.89079
upperback -0.850987 1.31569 -0.107462
thorax 2.02323 0.675947 -1.64317
lowerneck 2.85882 -0.964559 -1.62766
upperneck 2.0241 -1.34299 1.49005
head 0.168007 -0.682821 0.727938
rclavicle -8.47223e-015 1.18153e-014
rhumerus -40.2662 -7.78761 -78.399
rradius 29.4706
rwrist 3.32698
rhand 0.877239 -23.2424
rfingers 7.12502
rthumb 26.4303 -51.4197
lclavicle -8.47223e-015 1.18153e-014
lhumerus -30.5025 -9.10161 86.5598
lradius 20.4414
lwrist 9.13948
lhand -10.9574 -12.5278
lfingers 7.12502
lthumb 15.0615 16.9043
rfemur -4.62276 0.562901 18.1747
rtibia 16.6077
rfoot -20.5804 -10.9675
rtoes -16.0436
lfemur 0.671651 -1.0185 -20.9746
ltibia 13.1615
lfoot 339.602 -12.1935
ltoes 25.9232
623
root 5.55625 27.9195 0.813818 5.13802 -1.84639 -1.0531
lowerback -4.93168 1.02469 2.74878
upperback -0.832403 1.2225 -0.105802
thorax 1.96793 0.628026 -1.57012
lowerneck 2.84464 -0.897535 -1.65652
upperneck 1.90046 -1.25235 1.37921
head 0.13079 -0.637483 0.698312
rclavicle -1.49283e-015 -8.03835e-015
rhumerus -40.2227 -7.52595 -78.7472
rradius 29.6304
rwrist 3.17316
rhand 0.810601 -22.8677
rfingers 7.12502
rthumb 26.3666 -51.0546
lclavicle -1.49283e-015 -8.03835e-015
lhumerus -30.2562 -9.2846 86.4777
lradius 19.9875
lwrist 9.13331
lhand -10.7353 -12.4403
lfingers 7.12502
lthumb 15.2755 16.9756
rfemur -4.92639 0.902824 18.3659
rtibia 16.862
rfoot -20.3673 -11.0934
rtoes -16.8754
lfemur 0.596212 -1.05474 -20.7042
ltibia 13.1795
lfoot 339.665 -12.1676
ltoes 25.3603
624
root 5.54695 27.9221 0.795695 5.20529 -1.81028 -0.928192
lowerback -4.78949 0.949776 2.57613
upperback -0.83069 1.13653 -0.130409
thorax 1.8832 0.583115 -1.50663
lowerneck 2.8641 -0.892964 -1.66305
upperneck 1.77072 -1.24528 1.30179
head 0.0876925 -0.633822 0.676059
rclavicle 5.33108e-015 -2.16178e-015
rhumerus -40.2085 -7.2992 -79.0863
rradius 29.7512
rwrist 3.06584
rhand 0.718557 -22.5323
rfingers 7.12502
rthumb 26.2784 -50.7324
lclavicle 5.33108e-015 -2.16178e-015
lhumerus -30.1075 -9.33254 86.3455
lradius 19.6774
lwrist 9.01252
lhand -10.4821 -12.2993
lfingers 7.12502
lthumb 15.5194 17.0979
rfemur -5.15826 1.16127 18.4808
rtibia 17.0326
rfoot -20.1678 -11.2148
rtoes -17.926
lfemur 0.491095 -1.0709 -20.4882
ltibia 13.2514
lfoot 339.729 -12.1474
ltoes 24.5471
625
root 5.53875 27.9248 0.778637 5.25686 -1.75515 -0.776103
lowerback -4.62174 0.882196 2.41559
upperback -0.8433 1.06043 -0.177176
thorax 1.77094 0.542914 -1.47217
lowerneck 2.92126 -0.956744 -1.63364
upperneck 1.65285 -1.32922 1.24178
head 0.0433226 -0.675536 0.654084
rclavicle 1.47827e-014 -5.2181e-015
rhumerus -40.2428 -7.09184 -79.4231
rradius 29.856
rwrist 2.98235
rhand 0.582144 -22.2622
rfingers 7.12502
rthumb 26.1478 -50.4816
lclavicle 1.47827e-014 -5.2181e-015
lhumerus -30.0533 -9.22936 86.1586
lradius 19.5087
lwrist 8.74049
lhand -10.2059 -12.1036
lfingers 7.12502
lthumb 15.7854 17.2728
rfemur -5.28758 1.33908 18.5544
rtibia 17.0542
rfoot -19.9338 -11.3246
rtoes -19.1819
lfemur 0.374097 -1.07866 -20.2968
ltibia 13.3662
lfoot 339.778 -12.1185
ltoes 23.4169
626
root 5.53164 27.9279 0.762969 5.29667 -1.68159 -0.632989
lowerback -4.45162 0.821168 2.29899
upperback -0.856755 0.990416 -0.23069
thorax 1.6579 0.506107 -1.46854
lowerneck 2.99028 -1.05152 -1.58805
upperneck 1.57013 -1.45448 1.19518
head 0.00821277 -0.737904 0.633945
rclavicle 1.13292e-015 1.77664e-015
rhumerus -40.3163 -6.87846 -79.7601
rradius 29.9694
rwrist 2.89954
rhand 0.430281 -22.0272
rfingers 7.12502
rthumb 26.0024 -50.2681
lclavicle 1.13292e-015 1.77664e-015
lhumerus -30.0549 -9.00052 85.9292
lradius 19.4551
lwrist 8.3147
lhand -9.88842 -11.8399
lfingers 7.12502
lthumb 16.0911 17.512
rfemur -5.31616 1.45853 18.6332
rtibia 16.9184
rfoot -19.6771 -11.419
rtoes -20.4912
lfemur 0.247902 -1.08215 -20.0864
ltibia 13.5116
lfoot 339.824 -12.0921
ltoes 22.0568
